<?xml version="1.0" standalone="no"?>
<!DOCTYPE svg PUBLIC "-//W3C//DTD SVG 20010904//EN"
 "http://www.w3.org/TR/2001/REC-SVG-20010904/DTD/svg10.dtd">
<svg version="1.0" xmlns="http://www.w3.org/2000/svg"
 width="900.000000pt" height="900.000000pt" viewBox="0 0 900.000000 900.000000"
 preserveAspectRatio="xMidYMid meet">

<g transform="translate(0.000000,900.000000) scale(0.100000,-0.100000)"
fill="#000000" stroke="none">
<path d="M0 4500 l0 -4500 4500 0 4500 0 0 4500 0 4500 -4500 0 -4500 0 0
-4500z m4780 3325 c247 -23 719 -125 812 -176 10 -5 23 -9 30 -9 7 0 25 -6 39
-14 15 -7 51 -22 80 -31 85 -28 345 -157 470 -233 104 -63 277 -177 289 -192
3 -3 46 -37 95 -75 93 -73 368 -339 448 -435 25 -30 77 -98 116 -150 39 -52
75 -99 79 -105 9 -11 95 -151 164 -265 57 -94 173 -336 193 -400 4 -14 11 -30
16 -36 11 -14 24 -6 -333 -220 -7 -5 -36 54 -69 142 -34 89 -183 379 -213 414
-7 8 -26 37 -41 63 -39 69 -177 250 -260 343 -169 189 -378 370 -585 506 -182
119 -404 231 -585 295 -38 13 -79 28 -90 33 -42 20 -280 81 -404 104 -301 57
-715 62 -1006 11 -81 -14 -182 -35 -272 -58 l-92 -23 -163 157 -163 156 115
38 c381 123 741 177 1125 169 77 -2 169 -6 205 -9z m-1545 -666 c105 -101 278
-270 385 -375 107 -105 280 -273 385 -375 104 -101 273 -265 375 -365 102 -99
293 -286 425 -415 132 -129 332 -324 445 -434 241 -236 272 -267 461 -449 79
-77 208 -202 286 -279 l141 -140 44 25 c23 14 171 103 328 198 279 169 957
580 1134 687 49 29 91 51 94 48 9 -9 51 -227 67 -345 40 -299 39 -549 -1 -890
-27 -229 -128 -602 -229 -841 -52 -126 -151 -318 -224 -441 l-65 -107 -40 36
c-111 98 -277 258 -1096 1058 -308 301 -732 715 -1559 1520 -113 110 -251 245
-307 300 -55 55 -166 163 -245 240 -80 77 -288 280 -462 450 -175 171 -322
311 -327 313 -6 2 -6 -8 0 -25 4 -15 18 -62 30 -103 24 -82 24 -82 74 -250 19
-63 39 -131 44 -150 6 -19 54 -179 107 -355 54 -176 112 -372 130 -435 48
-167 109 -369 141 -465 7 -22 31 -105 54 -185 41 -141 141 -477 200 -670 16
-52 40 -135 55 -185 14 -49 34 -117 45 -150 11 -33 22 -70 25 -83 4 -23 16
-61 42 -137 7 -22 26 -87 42 -145 16 -58 92 -316 170 -575 79 -258 167 -553
197 -655 30 -102 76 -255 101 -340 99 -332 142 -484 138 -488 -8 -9 -364 -17
-490 -11 -196 10 -274 17 -400 40 -300 55 -631 155 -825 250 -24 12 -64 30
-88 40 -81 35 -247 131 -392 227 -80 52 -147 98 -150 101 -3 4 -49 41 -102 84
-54 43 -98 81 -98 85 1 4 65 45 143 92 143 85 775 468 1303 789 l152 92 -40
132 c-21 72 -45 155 -53 182 -8 28 -37 127 -65 220 -83 275 -118 393 -154 515
-19 63 -39 129 -45 145 -5 17 -37 125 -71 240 -34 116 -84 284 -112 375 -61
202 -100 336 -123 415 -9 33 -23 78 -30 100 -7 22 -19 60 -26 85 -15 52 -14
50 -21 70 -3 8 -12 40 -21 70 -9 30 -57 192 -107 360 -49 168 -105 355 -124
415 -19 61 -53 175 -76 255 -23 80 -47 163 -55 185 -7 22 -23 74 -35 115 -12
41 -35 120 -52 175 -16 55 -34 114 -38 130 -5 17 -14 45 -20 64 -5 19 -9 35
-8 36 3 3 189 117 263 162 l50 31 55 -52 c30 -29 141 -135 245 -237z m-891
-381 c31 -109 56 -204 56 -212 0 -9 -15 -32 -34 -53 -92 -102 -151 -171 -175
-203 -14 -19 -28 -37 -31 -40 -6 -5 -45 -61 -120 -175 -166 -251 -332 -635
-388 -900 -37 -171 -52 -250 -64 -330 -17 -120 -17 -597 0 -725 28 -206 103
-522 143 -605 6 -12 11 -27 13 -35 1 -8 10 -32 19 -54 9 -21 17 -41 17 -43 0
-6 19 -49 73 -163 59 -126 160 -301 249 -428 26 -38 187 -244 197 -252 3 -3
16 -17 29 -31 l23 -27 -128 -77 c-70 -43 -148 -91 -173 -107 l-45 -29 -38 43
c-21 24 -72 88 -113 143 -42 55 -82 108 -89 117 -28 34 -212 344 -242 408 -76
159 -113 239 -113 245 0 4 -7 21 -14 38 -51 110 -145 439 -175 615 -6 34 -15
88 -21 120 -22 125 -31 266 -31 494 0 131 2 242 5 246 3 4 8 51 12 102 3 52 8
98 10 101 2 4 6 27 9 50 6 54 14 92 61 289 35 145 69 257 127 410 26 69 154
348 167 365 4 6 25 42 46 80 21 39 58 101 83 138 25 38 55 83 66 100 23 39
184 245 233 301 85 95 287 295 293 288 3 -4 32 -96 63 -204z"/>
<path d="M7295 4566 c-227 -138 -690 -419 -772 -468 -46 -27 -83 -52 -83 -57
0 -4 39 -45 88 -91 48 -46 212 -206 365 -357 153 -150 282 -273 286 -273 12 0
105 251 150 405 61 209 101 511 101 756 0 87 -3 159 -7 158 -5 0 -62 -33 -128
-73z"/>
<path d="M3830 2469 c-157 -96 -708 -430 -778 -472 -28 -16 -31 -22 -20 -33
19 -18 210 -115 293 -149 39 -16 75 -32 80 -36 12 -8 209 -75 280 -95 84 -24
169 -46 191 -49 11 -2 54 -10 95 -18 108 -22 226 -37 292 -37 52 0 57 2 48 18
-5 9 -25 73 -45 142 -20 69 -45 152 -55 185 -11 33 -27 87 -36 120 -9 33 -20
71 -25 85 -19 62 -78 256 -110 368 -11 39 -26 72 -33 72 -7 -1 -86 -46 -177
-101z"/>
</g>
</svg>
